<svg xmlns="http://www.w3.org/2000/svg" viewBox="0 0 1200 200" preserveAspectRatio="none">
  <!-- Layer 1: Back factories -->
  <path d="M0,200 L0,100 L40,100 L40,80 L60,80 L60,120 L100,120 L100,60 L140,60 L140,90 L200,90 L200,40 L240,40 L240,100 L280,100 L280,120 L350,120 L350,50 L400,50 L400,110 L450,110 L450,80 L520,80 L520,130 L600,130 L600,60 L650,60 L650,90 L700,90 L700,140 L780,140 L780,70 L830,70 L830,110 L890,110 L890,50 L950,50 L950,90 L1000,90 L1000,130 L1080,130 L1080,60 L1140,60 L1140,110 L1200,110 L1200,200 Z" fill="#F1F5F9" />
  <!-- Smoke Stacks -->
  <rect x="210" y="10" width="12" height="40" fill="#F1F5F9"/>
  <rect x="360" y="20" width="10" height="40" fill="#F1F5F9"/>
  <rect x="620" y="15" width="14" height="60" fill="#F1F5F9"/>
  <rect x="910" y="10" width="10" height="50" fill="#F1F5F9"/>
  
  <!-- Layer 2: Front factories -->
  <path d="M0,200 L0,130 L50,130 L50,150 L90,150 L90,110 L130,110 L130,160 L180,160 L180,100 L230,100 L230,140 L290,140 L290,170 L340,170 L340,90 L390,90 L390,150 L440,150 L440,120 L480,120 L480,160 L540,160 L540,110 L610,110 L610,140 L680,140 L680,100 L730,100 L730,150 L800,150 L800,120 L860,120 L860,160 L920,160 L920,90 L980,90 L980,140 L1050,140 L1050,110 L1100,110 L1100,160 L1160,160 L1160,130 L1200,130 L1200,200 Z" fill="#E2E8F0" />
</svg>
