<svg xmlns="http://www.w3.org/2000/svg" viewBox="-10 -60 270 270" width="100%" height="100%">
  <!-- "i" -->
  <rect x="20" y="40" width="24" height="90" rx="12" fill="#22C55E" />
  <!-- leaf -->
  <path d="M 20 40 Q -5 40 -5 15 Q 20 15 20 40" fill="#A3E635" />
  
  <!-- "2" -->
  <text x="55" y="55" font-family="Nunito, sans-serif" font-weight="900" font-size="60" fill="#FF6B6B">2</text>
  
  <!-- "O" Structure -->
  <!-- Yellow Arc -->
  <path d="M 95 90 A 65 65 0 0 1 225 90" fill="none" stroke="#FFC857" stroke-width="16" stroke-linecap="round" />
  <path d="M 225 90 Q 250 90 250 60" fill="none" stroke="#FFC857" stroke-width="6" stroke-linecap="round" />
  <circle cx="250" cy="60" r="10" fill="#FF6B6B" />
  
  <!-- Purple Smile -->
  <path d="M 125 135 A 45 45 0 0 0 195 135" fill="none" stroke="#A78BFA" stroke-width="12" stroke-linecap="round" />
  
  <!-- Nodes & Connections -->
  <line x1="105" y1="105" x2="160" y2="75" stroke="#2DD4BF" stroke-width="6" />
  <line x1="160" y1="75" x2="215" y2="105" stroke="#2DD4BF" stroke-width="6" />
  
  <circle cx="105" cy="105" r="9" fill="#0284C7" />
  <circle cx="160" cy="75" r="9" fill="#F59E0B" />
  <circle cx="215" cy="105" r="9" fill="#2DD4BF" />
</svg>
